<svg width="696.75" height="696.74" version="1.1" viewBox="0 0 184.35 184.35" xmlns="http://www.w3.org/2000/svg">
 <g transform="translate(142.07 -54.014)">
  <g transform="translate(287.26 239.26)" stroke="#000">
   <g fill-rule="evenodd">
    <g stroke-width=".594">
     <path d="m-357.79-62.166c-2.2212 1.985-5.354 0.84509-11.705 6.9282l-2.8868-2.6058 22.037-22.037 2.653 2.6006c-4.1489 4.0546-7.9196 9.087-10.099 15.113z" fill="#fc0"/>
     <path d="m-368.06-72.434c-1.985 2.2211-0.84509 5.354-6.9282 11.705l2.6058 2.8868 22.037-22.037-2.6006-2.653c-4.0546 4.1489-9.087 7.9196-15.113 10.099z" fill="#d4aa00"/>
     <path d="m-365.78-64.443c3.377-1.3119 5.1692 0.18691 7.5441 2.4728-2.1718-2.5096-3.198-5.1609-2.4878-7.5291-2.3682 0.71019-5.0197-0.31619-7.5293-2.4879 2.2861 2.3748 3.785 4.1671 2.473 7.5443z" fill="#fc0" stroke-linecap="round" stroke-linejoin="round"/>
     <path d="m-316.52-123.97c2.2211-1.985 5.354-0.84509 11.705-6.9282l2.8868 2.6058-22.037 22.037-2.653-2.6006c4.1489-4.0546 7.9196-9.087 10.099-15.113z" fill="#fc0"/>
     <path d="m-306.25-113.71c1.985-2.2212 0.84509-5.354 6.9282-11.705l-2.6058-2.8868-22.037 22.037 2.6006 2.653c4.0546-4.1489 9.087-7.9196 15.113-10.099z" fill="#d4aa00"/>
     <path d="m-308.53-121.7c-3.377 1.3119-5.1691-0.1869-7.5441-2.4728 2.1718 2.5096 3.198 5.1609 2.4878 7.5291 2.3682-0.7102 5.0196 0.31618 7.5293 2.4879-2.2861-2.3748-3.785-4.1671-2.473-7.5443z" fill="#fc0" stroke-linecap="round" stroke-linejoin="round"/>
    </g>
    <g stroke-width=".59399">
     <path d="m-373.6-85.81c-2.9742-0.16695-4.3834-3.1883-13.175-3.3774l-0.19871-3.8839h31.166l0.037 3.7148c-5.8008-0.0667-12.025 0.82551-17.828 3.5452z" fill="#fc0"/>
     <path d="m-373.6-100.33c-2.9742 0.16695-4.3834 3.1882-13.175 3.3774l-0.19871 3.8839h31.166l0.037-3.7148c-5.8008 0.0667-12.025-0.8255-17.828-3.5452z" fill="#d4aa00"/>
     <path d="m-377.64-93.071c3.3155 1.4603 3.523 3.7873 3.5859 7.083 0.23892-3.3102 1.388-5.9106 3.5648-7.083-2.1767-1.1724-3.3258-3.773-3.5648-7.0832-0.0627 3.2957-0.27014 5.623-3.5859 7.0832z" fill="#fc0" stroke-linecap="round" stroke-linejoin="round"/>
     <path d="m-300.71-100.33c2.9742 0.16695 4.3834 3.1883 13.175 3.3774l0.1987 3.8838h-31.166l-0.037-3.7148c5.8008 0.0667 12.025-0.82551 17.828-3.5452z" fill="#fc0"/>
     <path d="m-300.71-85.81c2.9742-0.16695 4.3834-3.1882 13.175-3.3774l0.1987-3.8839h-31.166l-0.037 3.7148c5.8008-0.0667 12.025 0.8255 17.828 3.5452z" fill="#d4aa00"/>
     <path d="m-296.67-93.071c-3.3155-1.4602-3.523-3.7873-3.5859-7.083-0.23892 3.3102-1.388 5.9106-3.5648 7.083 2.1767 1.1724 3.3258 3.773 3.5648 7.0832 0.0627-3.2957 0.27014-5.623 3.5859-7.0832z" fill="#fc0" stroke-linecap="round" stroke-linejoin="round"/>
    </g>
    <g stroke-width=".59399">
     <path d="m-368.06-113.71c-1.985-2.2211-0.84509-5.3539-6.9281-11.705l2.6058-2.8868 22.037 22.037-2.6005 2.6529c-4.0546-4.1489-9.0869-7.9195-15.113-10.099z" fill="#fc0"/>
     <path d="m-357.79-123.98c-2.2211-1.985-5.3539-0.84509-11.705-6.9281l-2.8868 2.6058 22.037 22.037 2.6529-2.6005c-4.1489-4.0546-7.9195-9.0869-10.099-15.113z" fill="#d4aa00"/>
     <path d="m-365.78-121.7c1.3119 3.377-0.1869 5.1691-2.4728 7.544 2.5096-2.1717 5.1609-3.1979 7.529-2.4877-0.71019-2.3682 0.31618-5.0196 2.4879-7.5292-2.3747 2.286-4.167 3.785-7.5442 2.473z" fill="#fc0" stroke-linecap="round" stroke-linejoin="round"/>
     <path d="m-306.25-72.436c1.985 2.2211 0.84509 5.3539 6.9281 11.705l-2.6058 2.8868-22.037-22.037 2.6005-2.6529c4.0546 4.1489 9.0869 7.9195 15.113 10.099z" fill="#fc0"/>
     <path d="m-316.52-62.168c2.2211 1.985 5.3539 0.84509 11.705 6.9281l2.8868-2.6058-22.037-22.037-2.6529 2.6005c4.1489 4.0546 7.9195 9.0869 10.099 15.113z" fill="#d4aa00"/>
     <path d="m-308.53-64.445c-1.3119-3.377 0.1869-5.1691 2.4728-7.544-2.5096 2.1717-5.1609 3.1979-7.529 2.4877 0.71019 2.3682-0.31618 5.0196-2.4879 7.5292 2.3747-2.286 4.167-3.785 7.5442-2.473z" fill="#fc0" stroke-linecap="round" stroke-linejoin="round"/>
    </g>
    <g stroke-width=".59399">
     <path d="m-344.42-129.52c0.16696-2.9742 3.1882-4.3834 3.3774-13.175l3.8838-0.1987v31.165l-3.7148 0.037c0.0667-5.8007-0.8255-12.025-3.5452-17.828z" fill="#fc0"/>
     <path d="m-329.9-129.52c-0.16695-2.9742-3.1882-4.3834-3.3774-13.175l-3.8838-0.1987v31.165l3.7148 0.037c-0.0667-5.8007 0.8255-12.025 3.5452-17.828z" fill="#d4aa00"/>
     <path d="m-337.16-133.56c-1.4602 3.3155-3.7872 3.5229-7.0829 3.5859 3.3102 0.23892 5.9105 1.388 7.0829 3.5647 1.1724-2.1767 3.773-3.3258 7.0832-3.5647-3.2956-0.0627-5.6229-0.27014-7.0832-3.5859z" fill="#fc0" stroke-linecap="round" stroke-linejoin="round"/>
     <path d="m-329.9-56.629c-0.16695 2.9742-3.1882 4.3834-3.3774 13.175l-3.8838 0.1987v-31.165l3.7148-0.037c-0.0667 5.8007 0.8255 12.025 3.5452 17.828z" fill="#fc0"/>
     <path d="m-344.42-56.629c0.16695 2.9742 3.1882 4.3834 3.3774 13.175l3.8838 0.1987v-31.165l-3.7148-0.037c0.0667 5.8007-0.8255 12.025-3.5452 17.828z" fill="#d4aa00"/>
     <path d="m-337.16-52.589c1.4602-3.3155 3.7872-3.5229 7.0829-3.5859-3.3102-0.23892-5.9105-1.388-7.0829-3.5647-1.1724 2.1767-3.773 3.3258-7.0832 3.5647 3.2956 0.0627 5.6229 0.27014 7.0832 3.5859z" fill="#fc0" stroke-linecap="round" stroke-linejoin="round"/>
    </g>
    <circle transform="scale(1,-1)" cx="-337.15" cy="93.073" r="19.837" fill="#fc0" stroke-width=".54187"/>
    <circle transform="scale(1,-1)" cx="-337.15" cy="93.073" r="14.639" fill="#d4aa00" stroke-width=".52917"/>
    <path d="m-337.16-157.51c-35.571 0-64.429 28.858-64.429 64.429 0 35.571 28.858 64.447 64.429 64.447s64.447-28.877 64.447-64.447c0-35.571-28.877-64.429-64.447-64.429zm0 15.11c27.247 0 49.374 22.109 49.374 49.355 0 27.247-22.127 49.374-49.374 49.374s-49.355-22.127-49.355-49.374c0-27.247 22.109-49.355 49.355-49.355z" fill="#fc0" stroke-width=".59399"/>
   </g>
   <circle cx="-337.15" cy="-93.073" r="53.263" fill="none" stroke-width=".52917"/>
   <g fill-rule="evenodd">
    <ellipse transform="scale(1,-1)" cx="-337.15" cy="93.074" rx="9.955" ry="9.955" fill="#ffe680" stroke-width=".72768"/>
    <path d="m-334.78-89.978c-0.055-1.8706-1.6499-2.6255-2.4776-2.8922-4e-3 0.0413-0.0114 0.0796-0.0151 0.12144-7.5327 4.9548-7.6703-6.8673-1.0922-10.249-4.9699 0.60034-8.8281 4.8347-8.8281 9.9658 0 1.8513 0.50508 3.5872 1.3803 5.0774 4.4611 4.4482 10.075 3.4422 10.962-1.1679 0.059-0.30665 0.0786-0.59293 0.0709-0.8546z" fill="#fea" fill-opacity=".75" stroke-width=".59399"/>
    <path d="m-327.14-93.031c0-5.542-4.5006-10.041-10.041-10.041-0.41116 0-0.81518 0.0278-1.2134 0.0759-6.5783 3.3814-6.4405 15.203 1.0922 10.249 0.88794-9.8637 12.639-2.9898 8.4185 5.3697 1.1001-1.6105 1.7444-3.5565 1.7444-5.6528z" fill="#fd5" fill-opacity=".75" stroke-width=".59399"/>
    <ellipse cx="-337.15" cy="-175.19" rx="5.2347" ry="7.085" fill="#d4aa00" stroke-width=".64359"/>
    <g stroke-linejoin="round">
     <path d="m-332.55-178.58c-0.8845-2.2188-2.6223-3.72-4.6143-3.72s-3.7121 1.5007-4.5971 3.72c2.5797 0.43868 4.5797 3.4078 4.5971 7.017 0.0172-3.6174 2.0264-6.5889 4.6143-7.017z" fill="#fc0" stroke-width=".60193"/>
     <g stroke-width=".56594">
      <path d="m-337.15-170.29-3.5449 0.19897c-0.16431 8.4262-2.6821 10.078-3.0287 12.816l6.5738-0.37359z" fill="#fc0"/>
      <path d="m-337.15-170.29 3.5449 0.19897c0.16431 8.4262 2.6821 10.078 3.0287 12.816l-6.5738-0.37359z" fill="#d4aa00"/>
      <path d="m-337.15-160.92c-1.9386 3.9926-3.5941 3.0888-6.5185 3.5512 2.7196 0.25268 5.0228 1.0792 6.5185 3.5518 1.4957-2.4725 3.7984-3.2991 6.518-3.5518-2.9236-0.46249-4.5792 0.44185-6.518-3.5512z" fill="#fc0" stroke-linecap="round"/>
     </g>
    </g>
    <ellipse transform="scale(-1)" cx="337.16" cy="10.955" rx="5.2347" ry="7.085" fill="#d4aa00" stroke-width=".64359"/>
    <g stroke-linejoin="round">
     <path d="m-341.76-7.565c0.8845 2.2188 2.6223 3.72 4.6143 3.72 1.992 0 3.7121-1.5007 4.5971-3.72-2.5797-0.43868-4.5797-3.4078-4.5971-7.017-0.0172 3.6174-2.0264 6.5889-4.6143 7.017z" fill="#fc0" stroke-width=".60193"/>
     <g stroke-width=".56594">
      <path d="m-337.16-15.851 3.5449-0.19896c0.16431-8.4262 2.6821-10.078 3.0287-12.816l-6.5738 0.37359z" fill="#fc0"/>
      <path d="m-337.16-15.851-3.5449-0.19896c-0.1643-8.4262-2.6821-10.078-3.0287-12.816l6.5738 0.37359z" fill="#d4aa00"/>
      <path d="m-337.16-25.22c1.9386-3.9926 3.5941-3.0887 6.5185-3.5512-2.7197-0.25267-5.0228-1.0792-6.5185-3.5518-1.4957 2.4725-3.7984 3.2991-6.518 3.5518 2.9236 0.4625 4.5791-0.44185 6.518 3.5512z" fill="#fc0" stroke-linecap="round"/>
     </g>
    </g>
    <ellipse transform="rotate(-45)" cx="-172.59" cy="-386.33" rx="5.2347" ry="7.0851" fill="#d4aa00" stroke-width=".6436"/>
    <g stroke-linejoin="round">
     <path d="m-394.36-156.79c-2.1944-0.94349-4.4847-0.77623-5.8933 0.63237-1.4086 1.4086-1.5637 3.686-0.62021 5.8812 2.1343-1.5139 5.648-0.82862 8.2125 1.7111-2.5457-2.57-3.2262-6.092-1.699-8.2246z" fill="#fc0" stroke-width=".60193"/>
     <g stroke-width=".56595">
      <path d="m-391.76-147.67-2.3659 2.6473c5.842 6.0744 5.2297 9.0228 6.921 11.204l4.3842-4.9126z" fill="#fc0"/>
      <path d="m-391.76-147.67 2.6473-2.3659c6.0744 5.8421 9.0228 5.2297 11.204 6.921l-4.9126 4.3842z" fill="#d4aa00"/>
      <path d="m-385.13-141.05c1.4524 4.194-0.35734 4.7255-2.0982 7.1204 2.1018-1.7444 4.3148-2.7886 7.1208-2.0978-0.69074-2.806 0.35304-5.0187 2.0975-7.1204-2.3944 1.7403-2.9255 3.5504-7.1201 2.0978z" fill="#fc0" stroke-linecap="round"/>
     </g>
    </g>
    <ellipse transform="rotate(135)" cx="172.6" cy="222.1" rx="5.2347" ry="7.0851" fill="#d4aa00" stroke-width=".6436"/>
    <g stroke-linejoin="round">
     <path d="m-279.95-29.351c2.1944 0.94349 4.4847 0.77623 5.8933-0.63236 1.4086-1.4086 1.5637-3.686 0.6202-5.8812-2.1343 1.5139-5.648 0.82862-8.2125-1.7111 2.5457 2.57 3.2262 6.092 1.699 8.2246z" fill="#fc0" stroke-width=".60193"/>
     <g stroke-width=".56595">
      <path d="m-282.55-38.467 2.3659-2.6473c-5.8421-6.0744-5.2297-9.0228-6.921-11.204l-4.3843 4.9126z" fill="#fc0"/>
      <path d="m-282.55-38.467-2.6473 2.3659c-6.0744-5.842-9.0228-5.2297-11.204-6.921l4.9126-4.3842z" fill="#d4aa00"/>
      <path d="m-289.18-45.092c-1.4524-4.194 0.35734-4.7255 2.0982-7.1204-2.1018 1.7444-4.3148 2.7886-7.1208 2.0978 0.69074 2.806-0.35304 5.0187-2.0975 7.1204 2.3944-1.7403 2.9255-3.5504 7.1201-2.0978z" fill="#fc0" stroke-linecap="round"/>
     </g>
    </g>
    <ellipse transform="rotate(-90)" cx="93.073" cy="-419.27" rx="5.2348" ry="7.0851" fill="#d4aa00" stroke-width=".6436"/>
    <g stroke-linejoin="round">
     <path d="m-422.66-97.678c-2.2188 0.88451-3.7201 2.6223-3.7201 4.6144 0 1.9921 1.5007 3.7121 3.7201 4.5972 0.43868-2.5797 3.4079-4.5797 7.0171-4.5972-3.6174-0.0172-6.589-2.0265-7.0171-4.6144z" fill="#fc0" stroke-width=".60193"/>
     <g stroke-width=".56595">
      <path d="m-414.38-93.071 0.19897 3.5449c8.4263 0.16431 10.078 2.6821 12.817 3.0287l-0.37359-6.5739z" fill="#fc0"/>
      <path d="m-414.38-93.071 0.19897-3.5449c8.4263-0.16431 10.078-2.6821 12.817-3.0287l-0.37359 6.5739z" fill="#d4aa00"/>
      <path d="m-405.01-93.071c3.9926 1.9386 3.0888 3.5941 3.5513 6.5186 0.25268-2.7197 1.0792-5.0229 3.5518-6.5186-2.4726-1.4957-3.2991-3.7984-3.5518-6.5181-0.4625 2.9237 0.44185 4.5792-3.5513 6.5181z" fill="#fc0" stroke-linecap="round"/>
     </g>
    </g>
    <ellipse transform="rotate(90)" cx="-93.068" cy="255.04" rx="5.2348" ry="7.0851" fill="#d4aa00" stroke-width=".6436"/>
    <g stroke-linejoin="round">
     <path d="m-251.65-88.464c2.2188-0.88451 3.7201-2.6223 3.7201-4.6144 0-1.9921-1.5007-3.7121-3.7201-4.5972-0.43869 2.5797-3.4079 4.5797-7.0171 4.5972 3.6174 0.0172 6.589 2.0265 7.0171 4.6144z" fill="#fc0" stroke-width=".60193"/>
     <g stroke-width=".56595">
      <path d="m-259.93-93.07-0.19897-3.5449c-8.4263-0.16431-10.078-2.6821-12.817-3.0287l0.3736 6.5739z" fill="#fc0"/>
      <path d="m-259.93-93.07-0.19897 3.5449c-8.4263 0.16431-10.078 2.6821-12.817 3.0287l0.3736-6.5739z" fill="#d4aa00"/>
      <path d="m-269.3-93.07c-3.9926-1.9386-3.0888-3.5941-3.5513-6.5186-0.25268 2.7197-1.0792 5.0229-3.5518 6.5186 2.4726 1.4957 3.2991 3.7984 3.5518 6.5181 0.4625-2.9237-0.44186-4.5792 3.5513-6.5181z" fill="#fc0" stroke-linecap="round"/>
     </g>
    </g>
    <ellipse transform="rotate(225)" cx="304.22" cy="-254.71" rx="5.2348" ry="7.0851" fill="#d4aa00" stroke-width=".6436"/>
    <g stroke-linejoin="round">
     <path d="m-400.87-35.865c-0.9435 2.1944-0.77624 4.4848 0.63237 5.8934s3.6861 1.5637 5.8812 0.62021c-1.5139-2.1343-0.82862-5.6481 1.7111-8.2126-2.5701 2.5458-6.0921 3.2262-8.2247 1.699z" fill="#fc0" stroke-width=".60194"/>
     <g stroke-width=".56595">
      <path d="m-391.76-38.468 2.6473 2.366c6.0745-5.8421 9.0228-5.2298 11.204-6.9211l-4.9126-4.3843z" fill="#fc0"/>
      <path d="m-391.76-38.468-2.366-2.6473c5.8421-6.0745 5.2298-9.0228 6.9211-11.204l4.3843 4.9126z" fill="#d4aa00"/>
      <path d="m-385.13-45.092c4.194-1.4524 4.7256 0.35735 7.1205 2.0982-1.7444-2.1018-2.7886-4.3149-2.0978-7.1209-2.806 0.69074-5.0187-0.35304-7.1205-2.0975 1.7403 2.3944 3.5504 2.9256 2.0978 7.1201z" fill="#fc0" stroke-linecap="round"/>
     </g>
    </g>
    <ellipse transform="rotate(45)" cx="-304.21" cy="90.475" rx="5.2348" ry="7.0851" fill="#d4aa00" stroke-width=".6436"/>
    <g stroke-linejoin="round">
     <path d="m-273.43-150.28c0.9435-2.1944 0.77624-4.4848-0.63237-5.8934s-3.6861-1.5637-5.8812-0.6202c1.5139 2.1343 0.82862 5.6481-1.7111 8.2126 2.5701-2.5458 6.0921-3.2262 8.2247-1.699z" fill="#fc0" stroke-width=".60194"/>
     <g stroke-width=".56595">
      <path d="m-282.55-147.67-2.6474-2.366c-6.0745 5.8421-9.0228 5.2298-11.204 6.9211l4.9126 4.3843z" fill="#fc0"/>
      <path d="m-282.55-147.67 2.366 2.6473c-5.8421 6.0745-5.2298 9.0228-6.9211 11.204l-4.3843-4.9126z" fill="#d4aa00"/>
      <path d="m-289.18-141.05c-4.194 1.4524-4.7256-0.35735-7.1205-2.0982 1.7444 2.1018 2.7886 4.3149 2.0979 7.1209 2.806-0.69074 5.0187 0.35304 7.1205 2.0975-1.7403-2.3944-3.5504-2.9256-2.0978-7.1201z" fill="#fc0" stroke-linecap="round"/>
     </g>
    </g>
   </g>
  </g>
 </g>
</svg>
